<svg id="Capa_1" enable-background="new 0 0 512 512" height="512" viewBox="0 0 512 512" width="512" xmlns="http://www.w3.org/2000/svg"><g><path d="m0 126.035v267.935c0 7.122 5.774 12.896 12.896 12.896h486.209c7.122 0 12.896-5.773 12.896-12.896v-267.935z" fill="#c6c1c8"/><path d="m0 386.262v7.708c0 7.122 5.774 12.895 12.896 12.895h45.72l48.302-20.604h-106.918z" fill="#afaab4"/><path d="m470.793 126.035v156.145c0 57.483-46.599 104.083-104.083 104.083h-237.465v20.604h369.86c7.122 0 12.896-5.773 12.896-12.895v-267.937z" fill="#afaab4"/><path d="m129.245 406.866h310.886v-280.831h-368.262v267.577z" fill="#fff"/><path d="m71.869 393.612 20.785-7.35h-20.785z" fill="#c6c1c8"/><path d="m366.71 386.262h-233.709l-3.756 20.604h310.886v-50.913c-18.821 18.732-44.769 30.309-73.421 30.309z" fill="#f1f1f4"/><path d="m512 74.526-385.157-16.736-126.843 16.736v51.509h512z" fill="#f1f1f4"/><path d="m470.793 62.196v63.839h41.207v-51.509z" fill="#dfdde2"/><circle cx="454.961" cy="100.28" fill="#dfdde2" r="7.726"/><circle cx="480.715" cy="100.28" fill="#c6c1c8" r="7.726"/><path d="m429.206 108.007h-372.167c-4.268 0-7.726-3.459-7.726-7.726s3.459-7.726 7.726-7.726h372.167c4.268 0 7.726 3.459 7.726 7.726.001 4.266-3.458 7.726-7.726 7.726z" fill="#dfdde2"/><path d="m512 35.912c0-7.122-5.774-12.895-12.896-12.895h-486.208c-7.122 0-12.896 5.773-12.896 12.895v38.614h512z" fill="#5c90b9"/><path d="m499.104 23.017h-28.312v51.509h41.208v-38.614c0-7.122-5.774-12.895-12.896-12.895z" fill="#4a80aa"/><g fill="#f1f1f4"><circle cx="30.905" cy="48.771" r="7.726"/><circle cx="62.45" cy="48.771" r="7.726"/><circle cx="93.996" cy="48.771" r="7.726"/></g><path d="m169.189 307.655-42.346 42.346 13.37 34.535 44.64-44.64c-9.078-6.803-8.861-23.163-15.664-32.241z" fill="#afaab4"/><circle cx="256" cy="244.796" fill="#c6c1c8" r="118.761"/><circle cx="256" cy="244.796" fill="#ddeff1" r="88.054"/><path d="m273.38 158.457c18.081 16.127 29.467 39.601 29.467 65.735 0 48.631-39.423 88.054-88.054 88.054-5.95 0-11.762-.59-17.381-1.715 15.565 13.882 36.091 22.319 58.588 22.319 48.631 0 88.054-39.423 88.054-88.054 0-42.681-30.367-78.27-70.674-86.339z" fill="#bee2e4"/><path d="m153.633 376.791-29.628-29.628c-1.57-1.57-4.116-1.57-5.686 0l-105.329 105.328c-1.57 1.57-1.57 4.116 0 5.686l29.628 29.628c1.57 1.57 4.116 1.57 5.686 0l105.328-105.328c1.572-1.57 1.572-4.116.001-5.686z" fill="#665e66"/><path d="m223.877 275.631c-1.638 0-3.29-.519-4.691-1.592l-30.183-23.108c-1.909-1.462-3.029-3.73-3.029-6.135s1.12-4.673 3.029-6.135l30.183-23.109c3.389-2.595 8.237-1.95 10.832 1.438 2.594 3.388 1.951 8.237-1.438 10.831l-22.17 16.974 22.17 16.973c3.388 2.594 4.031 7.444 1.438 10.831-1.521 1.989-3.818 3.032-6.141 3.032zm68.937-1.592 30.183-23.108c1.909-1.462 3.029-3.73 3.029-6.135s-1.12-4.673-3.029-6.135l-30.183-23.109c-3.388-2.595-8.238-1.95-10.832 1.438s-1.951 8.237 1.438 10.831l22.17 16.974-22.17 16.973c-3.388 2.594-4.031 7.444-1.438 10.831 1.521 1.987 3.818 3.03 6.141 3.03 1.638.002 3.289-.517 4.691-1.59zm-35.861-2.946 13.02-48.595c1.105-4.122-1.341-8.358-5.463-9.463-4.124-1.104-8.359 1.342-9.463 5.464l-13.02 48.595c-1.105 4.122 1.341 8.358 5.463 9.463.67.18 1.343.265 2.005.265 3.411 0 6.533-2.277 7.458-5.729z" fill="#5c90b9"/><path d="m326.026 244.796c0-2.405-1.12-4.673-3.029-6.135l-20.156-15.431c.003.32.006.641.006.962 0 5.892-.579 11.648-1.682 17.216l4.425 3.388-6.521 4.992c-2.819 9.294-7.133 17.937-12.663 25.651.563.128 1.139.192 1.717.192 1.638 0 3.29-.519 4.691-1.592l30.183-23.108c1.909-1.462 3.029-3.73 3.029-6.135z" fill="#4a80aa"/></g></svg>